# xmcd
#
# Track frame offsets: 
#        150
#        14139
#        28996
#        50845
#        63645
#        85675
#        99321
#        115551
#        124538
#        141243
#        154738
#        173363
#        185181
#        205547
#        227487
#
# Disc length: 3214 seconds
#
# Revision: 1
# Processed by: cddbd v1.5.1PL2 Copyright (c) Steve Scherf et al.
# Submitted via: ExactAudioCopy v0.95b3
#
DISCID=c60c8c0f
DTITLE=Bone Thugs-N-Harmony - Behind The Harmony
DYEAR=2006
DGENRE=Rap
TTITLE0=Do You Remember
TTITLE1=Cause I'm Bone Bone
TTITLE2=When The Load Comes
TTITLE3=Yall Aint Know
TTITLE4=I Am Not That N___a
TTITLE5=Paradise
TTITLE6=Let Me Hold Something
TTITLE7=Here We Go
TTITLE8=Down To Die
TTITLE9=Blowin N Rollin
TTITLE10=Tear Da Club Up ft. Lil' Jon
TTITLE11=So Krayzie
TTITLE12=These Last Dayz
TTITLE13=First Round Knockout
TTITLE14=everybody wants a thug
EXTD=
EXTT0=
EXTT1=
EXTT2=
EXTT3=
EXTT4=
EXTT5=
EXTT6=
EXTT7=
EXTT8=
EXTT9=
EXTT10=
EXTT11=
EXTT12=
EXTT13=
EXTT14=
PLAYORDER=
